<?xml version="1.0" encoding="UTF-8" standalone="no" ?>
<!DOCTYPE svg PUBLIC "-//W3C//DTD SVG 1.1//EN" "http://www.w3.org/Graphics/SVG/1.1/DTD/svg11.dtd">
<svg xmlns="http://www.w3.org/2000/svg" xmlns:xlink="http://www.w3.org/1999/xlink" version="1.1" width="1000" height="500" viewBox="0 0 1000 500" xml:space="preserve">
<desc>Created with Fabric.js 4.2.0</desc>
<defs>
</defs>
<g transform="matrix(1 0 0 1 500 250)" id="0b29ff6c-5990-4420-a095-df1912cd2d1b"  >
<rect style="stroke: none; stroke-width: 1; stroke-dasharray: none; stroke-linecap: butt; stroke-dashoffset: 0; stroke-linejoin: miter; stroke-miterlimit: 4; fill: rgb(255,255,255); fill-opacity: 0; fill-rule: nonzero; opacity: 1;" vector-effect="non-scaling-stroke"  x="-500" y="-250" rx="0" ry="0" width="1000" height="500" />
</g>
<g transform="matrix(Infinity NaN NaN Infinity 0 0)" id="f3cb04d5-379d-4b84-bfbc-9cf4f751cfa4"  >
</g>
<g transform="matrix(1.34 0 0 1.34 500 250)"  >
<g style="" vector-effect="non-scaling-stroke"   >
		<g transform="matrix(1.19 0 0 1.19 -257.45 82.72)"  >
<path style="stroke: none; stroke-width: 1; stroke-dasharray: none; stroke-linecap: butt; stroke-dashoffset: 0; stroke-linejoin: miter; stroke-miterlimit: 4; fill: rgb(255,232,31); fill-rule: nonzero; opacity: 1;" vector-effect="non-scaling-stroke"  transform=" translate(-130.25, -279.22)" d="M 148.718 221.207 L 157.38799999999998 246.668 C 162.07899999999998 260.43600000000004 166.26699999999997 271.447 166.813 271.447 C 166.82199999999997 271.447 166.82999999999998 271.443 166.837 271.437 C 167.43699999999998 270.90700000000004 184.40699999999998 221.626 184.40699999999998 221.626 L 217.29699999999997 221.626 L 177.61699999999996 337.245 L 154.75699999999995 337.245 C 154.75699999999995 337.245 130.35699999999994 266.774 130.45699999999994 266.506 L 104.98699999999994 336.35699999999997 L 82.35699999999994 336.35699999999997 L 43.17699999999994 221.20699999999997 L 75.90699999999994 221.22799999999995 C 75.90699999999994 221.22799999999995 93.83599999999994 272.049 94.07499999999993 272.049 C 94.07599999999994 272.049 94.07599999999994 272.048 94.07699999999993 272.04699999999997 L 111.96699999999993 221.20599999999996 L 148.718 221.20599999999996 M 32.003 213.2 L 35.604 223.784 L 74.78399999999999 338.933 L 76.62899999999999 344.35699999999997 L 82.35799999999999 344.35699999999997 L 104.98799999999999 344.35699999999997 L 110.58599999999998 344.35699999999997 L 112.50399999999999 339.097 L 130.189 290.597 C 131.713 295.031 133.35999999999999 299.81 135.007 304.585 C 141.096 322.24 147.198 339.86199999999997 147.198 339.86199999999997 L 149.062 345.24499999999995 L 154.758 345.24499999999995 L 177.618 345.24499999999995 L 183.32999999999998 345.24499999999995 L 185.184 339.8419999999999 L 224.864 224.22399999999993 L 228.501 213.62599999999992 L 217.297 213.62599999999992 L 184.40699999999998 213.62599999999992 L 178.701 213.62599999999992 L 176.843 219.0219999999999 C 173.869 227.6569999999999 169.922 239.0529999999999 166.547 248.6979999999999 C 166.038 247.2349999999999 165.508 245.6969999999999 164.96 244.0869999999999 L 156.291 218.6269999999999 L 154.445 213.2059999999999 L 148.718 213.2059999999999 L 111.96799999999999 213.2059999999999 L 106.30199999999999 213.2059999999999 L 104.42099999999999 218.5509999999999 L 93.96799999999999 248.2569999999999 C 90.51499999999999 238.5509999999999 86.51199999999999 227.2399999999999 83.45199999999998 218.5659999999999 L 81.56999999999998 213.23199999999989 L 75.91299999999998 213.2279999999999 L 43.182999999999986 213.2069999999999 L 32.003 213.2 L 32.003 213.2 z" stroke-linecap="round" />
</g>
		<g transform="matrix(1.19 0 0 1.19 206.22 82.47)"  >
<path style="stroke: none; stroke-width: 1; stroke-dasharray: none; stroke-linecap: butt; stroke-dashoffset: 0; stroke-linejoin: miter; stroke-miterlimit: 4; fill: rgb(255,232,31); fill-rule: nonzero; opacity: 1;" vector-effect="non-scaling-stroke"  transform=" translate(-520.45, -279.02)" d="M 655.258 220.758 L 655.183 251.06300000000002 C 655.183 251.06300000000002 622.54 250.954 605.944 250.954 C 600.423 250.954 596.678 250.967 596.5 250.999 C 593.64 251.51999999999998 591.819 257.601 592.63 260.27 C 593.029 261.62 596.021 266.03 599.26 270.08 C 602.489 274.131 607.8 280.76099999999997 611.04 284.80899999999997 C 619.3589999999999 295.18999999999994 620.5 297.239 621.269 303.2 C 622.519 312.881 617.94 323.36 609.44 330.27 C 600.922 337.2 601.2950000000001 337.24899999999997 538.057 337.24899999999997 C 537.141 337.24899999999997 536.222 337.24899999999997 535.28 337.24899999999997 C 496.82 337.239 476.47999999999996 336.91999999999996 473.51899999999995 336.26 C 468.25899999999996 335.07 459.87899999999996 328.23 437.7289999999999 306.98 C 429.76199999999994 299.344 422.4199999999999 292.658 422.04299999999995 292.656 C 422.03299999999996 292.656 422.02799999999996 292.662 422.02799999999996 292.672 L 421.76699999999994 337.25100000000003 L 385.86799999999994 337.09200000000004 L 385.64699999999993 222.11200000000002 L 430.91799999999995 222.11200000000002 L 465.70799999999997 222.11200000000002 C 489.83799999999997 222.98300000000003 506.16799999999995 247.02200000000002 502.91799999999995 262.35200000000003 C 502.17799999999994 265.831 500.29799999999994 270.87300000000005 498.73699999999997 273.552 C 495.527 279.052 487.35699999999997 286.112 480.72599999999994 289.14300000000003 C 478.27699999999993 290.25100000000003 476.27699999999993 291.54100000000005 476.27699999999993 292.00100000000003 C 476.27699999999993 293.711 484.3379999999999 301.65000000000003 487.3569999999999 302.91100000000006 C 489.9359999999999 303.99000000000007 497.4469999999999 304.2300000000001 530.5669999999999 304.2300000000001 C 534.4489999999998 304.2300000000001 537.9749999999999 304.2320000000001 541.1749999999998 304.2320000000001 C 574.4679999999998 304.2320000000001 572.7929999999999 303.9920000000001 575.3649999999998 298.4910000000001 C 577.1659999999998 294.6610000000001 575.7959999999998 292.3710000000001 563.1259999999997 278.1010000000001 C 547.0749999999997 262.1300000000001 548.7559999999997 254.4800000000001 548.6459999999997 248.8300000000001 C 548.4169999999997 242.0600000000001 553.7479999999997 220.7610000000001 581.4579999999997 220.7610000000001 L 655.258 220.758 M 440.188 273.878 C 455.558 273.878 458.678 273.639 461.949 272.21799999999996 C 472.98900000000003 267.41799999999995 473.579 253.23899999999998 462.98900000000003 246.94699999999995 C 460.67 245.56599999999995 457.689 245.33799999999994 441.02900000000005 245.24699999999996 L 421.75000000000006 245.14599999999996 C 421.90900000000005 245.29599999999996 421.6890000000001 272.71599999999995 421.6890000000001 272.71599999999995 C 421.6890000000001 272.71599999999995 426.518 273.878 440.188 273.878 M 663.277 212.758 L 655.2560000000001 212.758 L 581.4560000000001 212.758 C 565.4240000000001 212.758 555.9410000000001 219.086 550.8100000000002 224.395 C 542.4630000000002 233.02800000000002 540.4970000000002 243.899 540.6480000000001 249.024 C 540.6560000000002 249.451 540.6510000000002 249.889 540.6460000000002 250.346 C 540.5730000000002 258.675 541.8000000000002 268.104 557.3050000000002 283.592 C 560.3700000000002 287.044 565.4980000000002 292.83099999999996 567.4360000000001 295.707 C 563.1980000000001 296.228 552.4560000000001 296.228 541.1740000000002 296.228 L 536.3820000000002 296.228 L 530.5660000000001 296.226 C 510.66200000000015 296.226 493.87800000000016 296.169 490.43800000000016 295.49 C 489.95700000000016 295.176 489.28200000000015 294.636 488.54000000000013 293.992 C 495.41700000000014 289.757 502.3700000000001 283.19300000000004 505.6440000000001 277.58000000000004 C 507.63100000000014 274.16700000000003 509.8220000000001 268.33700000000005 510.74200000000013 264.01200000000006 C 512.7820000000002 254.38700000000006 509.41700000000014 242.77600000000007 501.74100000000016 232.94400000000005 C 492.78500000000014 221.47300000000004 479.75600000000014 214.61000000000004 465.9950000000002 214.11400000000003 L 465.8500000000002 214.10800000000003 L 465.7050000000002 214.10800000000003 L 430.9150000000002 214.10800000000003 L 385.6440000000002 214.10800000000003 L 377.62800000000016 214.10800000000003 L 377.6440000000002 222.12500000000003 L 377.8650000000002 337.10400000000004 L 377.8810000000002 345.05300000000005 L 385.8300000000002 345.0880000000001 L 421.7290000000002 345.24700000000007 L 429.7170000000002 345.2820000000001 L 429.76400000000024 337.2940000000001 L 429.9190000000002 310.5880000000001 C 430.6520000000002 311.2840000000001 431.4100000000002 312.00700000000006 432.1880000000002 312.7530000000001 C 456.4150000000002 335.9930000000001 464.5470000000002 342.4320000000001 471.7500000000002 344.0610000000001 C 473.7290000000002 344.50200000000007 477.0030000000002 345.2330000000001 535.2730000000003 345.2490000000001 L 538.0520000000002 345.2490000000001 C 569.5980000000003 345.2490000000001 585.4320000000002 345.2490000000001 594.8510000000002 344.33900000000006 C 605.6400000000002 343.29600000000005 609.1100000000002 340.84900000000005 614.3120000000002 336.61400000000003 L 614.4850000000002 336.473 C 625.1700000000002 327.786 630.8080000000002 314.64300000000003 629.2000000000003 302.173 C 628.1520000000003 294.063 626.0060000000003 290.694 617.2780000000002 279.805 L 614.6840000000002 276.565 C 611.6440000000002 272.766 607.9710000000002 268.178 605.5090000000002 265.09 C 603.5230000000003 262.606 601.9630000000002 260.40099999999995 601.0220000000003 258.957 C 602.2580000000003 258.954 603.8630000000003 258.952 605.9400000000003 258.952 C 622.3350000000003 258.952 654.8270000000002 259.06 655.1530000000002 259.062 L 663.1610000000003 259.088 L 663.1810000000003 251.08 L 663.2560000000003 220.774 L 663.277 212.758 L 663.277 212.758 z M 429.739 265.586 C 429.75199999999995 263.565 429.76399999999995 261.29900000000004 429.777 259.029 C 429.787 257.029 429.796 255.025 429.799 253.189 L 440.986 253.24699999999999 C 447.41499999999996 253.28199999999998 457.089 253.33499999999998 458.97499999999997 253.86999999999998 C 461.38199999999995 255.331 462.72499999999997 257.59 462.57899999999995 259.92999999999995 C 462.49899999999997 261.19399999999996 461.89699999999993 263.518 458.7579999999999 264.881 C 457.0079999999999 265.64099999999996 454.2179999999999 265.878 440.18799999999993 265.878 C 435.738 265.878 432.305 265.749 429.739 265.586 L 429.739 265.586 z" stroke-linecap="round" />
</g>
		<g transform="matrix(1.19 0 0 1.19 -72.58 81.67)"  >
<path style="stroke: none; stroke-width: 1; stroke-dasharray: none; stroke-linecap: butt; stroke-dashoffset: 0; stroke-linejoin: miter; stroke-miterlimit: 4; fill: rgb(255,232,31); fill-rule: nonzero; opacity: 1;" vector-effect="non-scaling-stroke"  transform=" translate(-285.89, -278.34)" d="M 312.908 220.287 L 353.19800000000004 336.207 L 320.36800000000005 336.35699999999997 L 314.91800000000006 318.94699999999995 L 256.2180000000001 318.47599999999994 L 251.03800000000007 335.9069999999999 L 218.53800000000007 335.5659999999999 L 258.3180000000001 220.33699999999993 L 312.908 220.287 M 286.507 237.283 C 286.424 237.61599999999999 281.363 251.50199999999998 276.285 265.387 C 271.165 279.387 266.028 293.387 265.95700000000005 293.496 C 265.95700000000005 293.49699999999996 265.9560000000001 293.49699999999996 265.95700000000005 293.49699999999996 L 265.95700000000005 293.49699999999996 C 265.95700000000005 293.49699999999996 265.95700000000005 293.49699999999996 265.95700000000005 293.496 C 266.0930000000001 293.45599999999996 284.273 293.416 295.92500000000007 293.416 C 301.37800000000004 293.416 305.4000000000001 293.425 305.4750000000001 293.445 C 305.47600000000006 293.449 305.47600000000006 293.45 305.47600000000006 293.45 C 305.47600000000006 293.45 305.47600000000006 293.449 305.47600000000006 293.447 C 305.47600000000006 293.447 305.47600000000006 293.447 305.4750000000001 293.445 C 305.271 292.916 286.566 237.959 286.507 237.283 C 286.508 237.279 286.508 237.277 286.508 237.277 L 286.508 237.277 C 286.507 237.277 286.507 237.279 286.507 237.283 M 318.595 212.282 L 312.90200000000004 212.287 L 258.312 212.338 L 252.616 212.343 L 250.757 217.72899999999998 L 210.977 332.95799999999997 L 207.354 343.452 L 218.45600000000002 343.567 L 250.95600000000002 343.908 L 256.98900000000003 343.971 L 258.708 338.189 L 262.17400000000004 326.52700000000004 L 309.028 326.90200000000004 L 312.73600000000005 338.75000000000006 L 314.50100000000003 344.38800000000003 L 320.408 344.362 L 353.237 344.21200000000005 L 364.432 344.16 L 360.75600000000003 333.586 L 320.466 217.666 L 318.595 212.282 L 318.595 212.282 z M 277.472 285.424 C 278.98699999999997 281.29499999999996 281.02799999999996 275.714 283.799 268.135 C 284.668 265.759 285.46299999999997 263.584 286.19199999999995 261.59 C 286.85499999999996 263.546 287.57699999999994 265.674 288.36099999999993 267.988 C 289.00699999999995 269.894 291.84599999999995 278.258 294.28099999999995 285.416 C 287.041 285.416 281.591 285.417 277.472 285.424 L 277.472 285.424 z" stroke-linecap="round" />
</g>
		<g transform="matrix(1.19 0 0 1.19 -195.63 -82.74)"  >
<path style="stroke: none; stroke-width: 1; stroke-dasharray: none; stroke-linecap: butt; stroke-dashoffset: 0; stroke-linejoin: miter; stroke-miterlimit: 4; fill: rgb(255,232,31); fill-rule: nonzero; opacity: 1;" vector-effect="non-scaling-stroke"  transform=" translate(-182.2, -139.96)" d="M 326.488 81.928 L 326.488 110.52799999999999 L 269.20799999999997 110.52799999999999 L 269.20799999999997 197.998 L 235.05799999999996 197.998 L 235.05799999999996 110.45799999999998 L 168.19799999999998 110.64799999999998 C 160.13799999999998 110.64799999999998 159.058 117.06799999999998 159.058 119.52799999999998 C 159.058 122.54799999999997 161.028 125.56799999999998 171.84799999999998 139.26799999999997 C 178.868 148.16799999999998 185.31799999999998 157.04799999999997 186.16799999999998 158.98799999999997 C 190.80799999999996 169.66799999999998 184.80799999999996 186.30799999999996 173.878 193.06799999999998 C 166.088 197.88099999999997 167.41899999999998 197.999 109.56999999999998 197.999 C 106.59599999999998 197.999 103.47399999999998 197.999 100.17799999999998 197.999 L 37.90799999999998 197.999 L 37.90799999999998 165.869 L 135.808 165.869 L 138.69799999999998 163.859 C 140.64799999999997 162.499 141.778 160.62900000000002 142.20799999999997 158.06900000000002 C 142.80799999999996 154.389 142.49799999999996 153.90900000000002 130.40799999999996 140.28900000000002 C 116.11799999999997 124.18900000000002 114.60799999999996 121.24900000000002 115.34799999999996 110.96900000000002 C 116.18799999999996 99.23900000000002 126.64799999999995 82.19900000000003 144.92799999999994 82.19900000000003 L 326.488 81.928 M 334.488 73.916 L 326.475 73.928 L 144.91500000000002 74.198 C 134.45700000000002 74.198 124.74400000000003 78.716 117.57300000000002 86.91999999999999 C 111.75900000000001 93.57199999999999 107.94300000000003 102.34899999999999 107.36700000000002 110.39699999999999 C 106.39400000000002 123.90799999999999 109.50400000000002 128.79 124.42300000000002 145.599 C 128.75300000000001 150.476 132.87 155.11499999999998 134.24400000000003 157.08499999999998 C 134.22200000000004 157.164 134.20200000000003 157.21499999999997 134.19000000000003 157.24399999999997 C 134.17500000000004 157.25599999999997 134.15200000000002 157.27399999999997 134.12000000000003 157.29599999999996 L 133.29800000000003 157.86799999999997 L 37.908 157.86799999999997 L 29.908 157.86799999999997 L 29.908 165.86799999999997 L 29.908 197.99799999999996 L 29.908 205.99799999999996 L 37.908 205.99799999999996 L 100.178 205.99799999999996 L 105.115 205.99799999999996 L 109.57 205.99799999999996 C 138.09199999999998 205.99799999999996 152.17 205.97099999999998 160.464 205.36299999999997 C 169.954 204.66799999999998 172.982 203.03999999999996 177.518 200.22299999999998 L 178.084 199.87199999999999 C 192.346 191.051 199.696 170.045 193.506 155.798 C 191.596 151.44 179.503 136.052 178.13 134.312 C 174.334 129.50500000000002 168.06799999999998 121.57200000000002 167.076 119.27600000000001 C 167.1 119.08300000000001 167.147 118.88300000000001 167.197 118.74400000000001 C 167.362 118.70200000000001 167.678 118.64600000000002 168.198 118.64600000000002 L 227.058 118.47900000000001 L 227.058 197.996 L 227.058 205.996 L 235.058 205.996 L 269.20799999999997 205.996 L 277.20799999999997 205.996 L 277.20799999999997 197.996 L 277.20799999999997 118.52600000000001 L 326.48799999999994 118.52600000000001 L 334.48799999999994 118.52600000000001 L 334.48799999999994 110.52600000000001 L 334.48799999999994 81.92600000000002 L 334.48799999999994 73.916 L 334.488 73.916 z" stroke-linecap="round" />
</g>
		<g transform="matrix(1.19 0 0 1.19 53.71 -81.5)"  >
<path style="stroke: none; stroke-width: 1; stroke-dasharray: none; stroke-linecap: butt; stroke-dashoffset: 0; stroke-linejoin: miter; stroke-miterlimit: 4; fill: rgb(255,232,31); fill-rule: nonzero; opacity: 1;" vector-effect="non-scaling-stroke"  transform=" translate(-392.19, -141)" d="M 419.548 82.857 L 459.728 199.077 L 426.958 198.897 L 421.63800000000003 181.487 L 363.199 181.227 L 357.978 197.997 L 324.60900000000004 197.997 L 364.348 82.85700000000001 L 419.548 82.85700000000001 M 372.737 156.478 L 412.538 156.428 C 412.539 156.428 412.539 156.429 412.539 156.429 C 412.675 156.429 393.197 99.22800000000001 393.067 99.188 L 393.067 99.188 C 392.925 99.183 372.288 156.478 372.737 156.478 M 425.247 74.857 L 419.548 74.857 L 364.348 74.857 L 358.647 74.857 L 356.787 80.247 L 317.04699999999997 195.388 L 313.385 205.998 L 324.61 205.998 L 357.98 205.998 L 363.869 205.998 L 365.619 200.375 L 369.08000000000004 189.254 L 415.71200000000005 189.46099999999998 L 419.31100000000004 201.23499999999999 L 421.03200000000004 206.86399999999998 L 426.91900000000004 206.89699999999996 L 459.689 207.07699999999997 L 470.98600000000005 207.13899999999998 L 467.2950000000001 196.463 L 427.11500000000007 80.243 L 425.247 74.857 L 425.247 74.857 z M 383.851 148.464 C 386.319 141.437 389.755 131.807 392.865 123.152 C 395.813 131.796 399.074 141.397 401.45300000000003 148.442 L 383.851 148.464 L 383.851 148.464 z" stroke-linecap="round" />
</g>
		<g transform="matrix(1.19 0 0 1.19 268.91 -82.18)"  >
<path style="stroke: none; stroke-width: 1; stroke-dasharray: none; stroke-linecap: butt; stroke-dashoffset: 0; stroke-linejoin: miter; stroke-miterlimit: 4; fill: rgb(255,232,31); fill-rule: nonzero; opacity: 1;" vector-effect="non-scaling-stroke"  transform=" translate(-573.3, -140.43)" d="M 532.396 82.857 C 558.317 82.857 576.3059999999999 83.227 579.766 83.827 C 587.766 85.217 594.996 89.487 600.4159999999999 96.047 C 606.0859999999999 102.907 607.386 106.187 608.126 115.58699999999999 C 609.187 128.857 602.876 140.307 590.4259999999999 147.737 C 586.7959999999999 149.90699999999998 583.0669999999999 152.017 582.136 152.43699999999998 C 580.706 153.087 580.8969999999999 153.707 583.456 156.707 C 585.105 158.637 587.966 161.387 589.806 162.817 L 593.166 165.42700000000002 L 655.2460000000001 166.317 L 655.8550000000001 197.997 L 617.7940000000001 197.997 C 588.3550000000001 197.997 578.9340000000001 197.727 576.1740000000001 196.79700000000003 C 572.0440000000001 195.39700000000002 562.1050000000001 186.97700000000003 541.9030000000001 167.75700000000003 L 527.4830000000002 154.03700000000003 L 527.6350000000002 197.99700000000004 L 490.5920000000002 197.99700000000004 L 490.5920000000002 82.857 L 532.396 82.857 M 526.938 134.627 L 546.609 134.627 C 565.75 134.627 566.3480000000001 134.567 569.0790000000001 132.517 C 573.96 128.857 575.6880000000001 125.08699999999999 575.1700000000001 119.297 C 574.6400000000001 113.327 572.34 110.217 566.5690000000001 107.717 C 563.3190000000001 106.297 560.1880000000001 106.067 544.8480000000001 106.067 L 526.9380000000001 106.067 L 526.9380000000001 134.627 M 532.396 74.857 L 490.59599999999995 74.857 L 482.59599999999995 74.857 L 482.59599999999995 82.857 L 482.59599999999995 197.997 L 482.59599999999995 205.997 L 490.59599999999995 205.997 L 527.6389999999999 205.997 L 535.6669999999999 205.997 L 535.6389999999999 197.96900000000002 L 535.5509999999999 172.75300000000001 L 536.391 173.55200000000002 C 561.377 197.32500000000002 568.747 202.72500000000002 573.6089999999999 204.37300000000002 C 577.3419999999999 205.632 583.5909999999999 205.997 617.7969999999999 205.997 L 655.858 205.997 L 664.012 205.997 L 663.856 197.84300000000002 L 663.247 166.163 L 663.0989999999999 158.429 L 655.3649999999999 158.318 L 595.9629999999999 157.467 L 594.7179999999998 156.5 C 594.3219999999999 156.191 593.8419999999999 155.783 593.3289999999998 155.321 C 593.7749999999999 155.057 594.1829999999999 154.814 594.5359999999998 154.60399999999998 C 609.5389999999999 145.65099999999998 617.4019999999998 131.19699999999997 616.1049999999998 114.951 C 615.2419999999997 103.99199999999999 613.2849999999997 99.05499999999999 606.5849999999998 90.951 C 600.0009999999999 82.982 590.9639999999998 77.65299999999999 581.1379999999998 75.946 C 575.678 74.999 548.257 74.857 532.396 74.857 L 532.396 74.857 z M 534.938 114.067 L 544.848 114.067 C 558.875 114.067 561.654 114.3 563.366 115.04799999999999 C 566.616 116.45599999999999 566.946 117.13899999999998 567.201 120.00499999999998 C 567.457 122.85299999999998 567.104 123.99899999999998 564.279 126.11699999999998 C 564.186 126.18599999999998 564.115 126.23999999999998 564.056 126.28299999999997 C 562.191 126.62799999999997 555.2700000000001 126.62799999999997 546.609 126.62799999999997 L 534.9390000000001 126.62799999999997 L 534.938 114.067 L 534.938 114.067 z" stroke-linecap="round" />
</g>
</g>
</g>
</svg>