<?xml version="1.0" encoding="UTF-8" standalone="no" ?>
<!DOCTYPE svg PUBLIC "-//W3C//DTD SVG 1.1//EN" "http://www.w3.org/Graphics/SVG/1.1/DTD/svg11.dtd">
<svg xmlns="http://www.w3.org/2000/svg" xmlns:xlink="http://www.w3.org/1999/xlink" version="1.1" width="1080" height="800" viewBox="0 0 1080 800" xml:space="preserve">
<desc>Created with Fabric.js 4.2.0</desc>
<defs>
</defs>
<rect x="0" y="0" width="100%" height="100%" fill="transparent"></rect>
<g transform="matrix(0 0 0 0 0 0)" id="7be86593-69cd-455c-a001-fb5e70000746"  >
</g>
<g transform="matrix(1 0 0 1 540 400)" id="2275f175-e8ea-403e-b65f-86c289778ad8"  >
<rect style="stroke: none; stroke-width: 1; stroke-dasharray: none; stroke-linecap: butt; stroke-dashoffset: 0; stroke-linejoin: miter; stroke-miterlimit: 4; fill: rgb(148,87,87); fill-opacity: 0; fill-rule: nonzero; opacity: 1;" vector-effect="non-scaling-stroke"  x="-540" y="-400" rx="0" ry="0" width="1080" height="800" />
</g>
<g transform="matrix(1.55 0 0 1.55 540 400)"  >
<g style="opacity: 0.88;" vector-effect="non-scaling-stroke"   >
		<g transform="matrix(1.05 0 0 1.05 190.45 77.98)"  >
<path style="stroke: none; stroke-width: 1; stroke-dasharray: none; stroke-linecap: butt; stroke-dashoffset: 0; stroke-linejoin: miter; stroke-miterlimit: 4; fill: rgb(0,0,0); fill-rule: nonzero; opacity: 1;" vector-effect="non-scaling-stroke"  transform=" translate(-851.55, -217.2)" d="M 932.177 193.003 L 999.999 193.003 L 999.999 148.36399999999998 L 912.78 148.36399999999998 C 904.612 148.36399999999998 893.16 152.57899999999998 886.568 157.47699999999998 C 879.991 162.36999999999998 870.452 173.53199999999998 870.452 188.90099999999998 C 870.46 204.27599999999998 879.764 216.231 879.764 216.231 C 884.529 222.159 896.539 234.518 896.539 234.518 C 896.797 234.819 896.983 235.196 896.975 235.622 C 896.984 236.544 896.225 237.29000000000002 895.304 237.29000000000002 L 828.127 237.30400000000003 C 819.959 237.26100000000002 819.391 233.99700000000004 819.391 233.53800000000004 C 819.391 232.70200000000003 820.4119999999999 232.17500000000004 820.4119999999999 232.17500000000004 C 823.4719999999999 230.70200000000003 829.7159999999999 225.81000000000003 829.7159999999999 225.81000000000003 C 842.9929999999999 215.43500000000003 844.5799999999999 201.20300000000003 844.5799999999999 193.57000000000002 C 844.5719999999999 185.94500000000002 843.444 172.425 829.8319999999999 160.57600000000002 C 816.2129999999999 148.74200000000002 798.9579999999999 148.38700000000003 798.9579999999999 148.38700000000003 L 703.1049999999999 148.38700000000003 C 703.1049999999999 148.38700000000003 703.0959999999999 285.235 703.1049999999999 285.26 C 703.0959999999999 285.68399999999997 703.497 286.037 703.9379999999999 286.037 C 704.0189999999999 286.041 757.3099999999998 286.037 757.3099999999998 286.037 L 757.3099999999998 247.658 C 757.3099999999998 246.986 758.3219999999998 247.66199999999998 758.3219999999998 247.66199999999998 L 786.1319999999997 275.676 C 796.0069999999997 285.70099999999996 812.3519999999997 286.037 812.3519999999997 286.037 L 917.4369999999998 286.02299999999997 C 935.3659999999998 286.02299999999997 945.3539999999998 276.23199999999997 948.0779999999997 273.49399999999997 C 950.8069999999998 270.76 959.8789999999998 260.52299999999997 959.8789999999998 243.54899999999998 C 959.8789999999998 226.57999999999998 952.1709999999998 217.90999999999997 948.8659999999998 213.91599999999997 C 945.9229999999998 210.35199999999998 934.2059999999998 197.90399999999997 931.7629999999998 195.34199999999996 C 931.4809999999998 195.08999999999995 931.3069999999998 194.72899999999996 931.2939999999998 194.32399999999996 C 931.293 193.726 931.633 193.169 932.177 193.003 M 788.618 204.736 L 758.695 204.736 C 758.695 204.736 757.9010000000001 204.51899999999998 757.9010000000001 203.605 L 757.8700000000001 188.45499999999998 C 757.8700000000001 187.53099999999998 758.6640000000001 187.30999999999997 758.6640000000001 187.30999999999997 L 786.1310000000001 187.30999999999997 C 789.3070000000001 187.30999999999997 795.777 188.902 795.777 196.30399999999997 C 795.776 203.71 788.618 204.736 788.618 204.736" stroke-linecap="round" />
</g>
		<g transform="matrix(1.05 0 0 1.05 -62.09 77.99)"  >
<path style="stroke: none; stroke-width: 1; stroke-dasharray: none; stroke-linecap: butt; stroke-dashoffset: 0; stroke-linejoin: miter; stroke-miterlimit: 4; fill: rgb(0,0,0); fill-rule: nonzero; opacity: 1;" vector-effect="non-scaling-stroke"  transform=" translate(-611.84, -217.21)" d="M 649.724 149.626 C 649.5260000000001 148.946 648.918 148.423 648.191 148.362 L 574.482 148.376 C 573.7479999999999 148.437 573.14 148.939 572.946 149.626 C 572.946 149.626 532.19 284.581 532.19 284.83299999999997 C 532.19 285.505 532.7420000000001 286.044 533.4090000000001 286.044 L 582.1340000000001 286.036 C 582.5250000000001 285.899 582.8080000000001 285.534 582.9050000000001 285.108 L 588.5730000000001 266.91700000000003 C 588.7610000000001 266.47200000000004 589.1800000000001 266.16100000000006 589.6940000000001 266.136 L 634.6320000000001 266.105 C 635.133 266.132 635.5540000000001 266.476 635.74 266.918 L 641.534 285.123 C 641.624 285.53499999999997 641.918 285.912 642.3199999999999 286.061 C 642.3199999999999 286.061 690.198 286.04499999999996 690.2579999999999 286.04499999999996 C 690.9259999999999 286.04499999999996 691.478 285.53499999999997 691.4859999999999 284.854 C 691.484 284.634 649.724 149.626 649.724 149.626 M 622.67 228.687 L 602.597 228.693 C 601.8919999999999 228.67200000000003 601.369 227.87900000000002 601.369 227.13000000000002 C 601.369 226.83100000000002 612.0590000000001 192.29800000000003 612.0590000000001 192.29800000000003 C 612.441 190.99300000000002 612.4800000000001 190.96000000000004 612.6270000000001 190.95200000000003 L 612.638 190.96000000000004 C 612.793 190.94800000000004 612.825 190.99300000000002 613.1940000000001 192.29800000000003 C 613.1940000000001 192.29800000000003 623.8840000000001 226.83100000000002 623.8840000000001 227.13000000000002 C 623.885 227.878 623.323 228.671 622.67 228.687" stroke-linecap="round" />
</g>
		<g transform="matrix(1.05 0 0 1.05 -237.48 77.99)"  >
<path style="stroke: none; stroke-width: 1; stroke-dasharray: none; stroke-linecap: butt; stroke-dashoffset: 0; stroke-linejoin: miter; stroke-miterlimit: 4; fill: rgb(0,0,0); fill-rule: nonzero; opacity: 1;" vector-effect="non-scaling-stroke"  transform=" translate(-445.71, -217.2)" d="M 507.846 286.037 C 508.206 286.037 508.45300000000003 285.777 508.572 285.387 C 508.572 285.387 549.87 149.311 549.87 149.19 C 549.87 148.817 549.636 148.417 549.292 148.377 C 549.292 148.377 498.43300000000005 148.377 498.41200000000003 148.383 C 498.148 148.383 497.99 148.58200000000002 497.93300000000005 148.858 C 497.93300000000005 148.87 487.41200000000003 184.241 487.40000000000003 184.258 C 487.33200000000005 184.55700000000002 487.182 184.738 486.927 184.74200000000002 C 486.672 184.74200000000002 486.46000000000004 184.49200000000002 486.41900000000004 184.252 L 475.396 148.832 C 475.35900000000004 148.60299999999998 475.17 148.37699999999998 474.91700000000003 148.37699999999998 C 474.898 148.37699999999998 418.72 148.36499999999998 418.72 148.36499999999998 C 418.545 148.39799999999997 418.41900000000004 148.53499999999997 418.34700000000004 148.69899999999998 C 418.34700000000004 148.69899999999998 408.46200000000005 184.23999999999998 408.46200000000005 184.25 C 408.4080000000001 184.547 408.25000000000006 184.734 407.98300000000006 184.734 C 407.73600000000005 184.734 407.54100000000005 184.556 407.50900000000007 184.316 L 397.0280000000001 148.798 C 397.00000000000006 148.581 396.83400000000006 148.394 396.6160000000001 148.362 L 342.3650000000001 148.376 C 341.9110000000001 148.382 341.5510000000001 148.739 341.5510000000001 149.171 C 341.5590000000001 149.253 341.5790000000001 149.403 341.5790000000001 149.403 C 341.5790000000001 149.403 383.46000000000015 285.325 383.4810000000001 285.385 C 383.5940000000001 285.78 383.8410000000001 286.043 384.19400000000013 286.039 C 384.2620000000001 286.043 429.26100000000014 286.043 429.26100000000014 286.043 C 429.5360000000001 286.022 429.8100000000001 285.699 429.8890000000001 285.385 C 429.8890000000001 285.383 445.55700000000013 234.793 445.55700000000013 234.793 L 445.55700000000013 234.781 C 445.66700000000014 234.478 445.77300000000014 234.30100000000002 446.04000000000013 234.29500000000002 C 446.30400000000014 234.29500000000002 446.4610000000001 234.51000000000002 446.5190000000001 234.77400000000003 L 461.8170000000001 285.59400000000005 C 461.9060000000001 285.85400000000004 462.14800000000014 286.04300000000006 462.43200000000013 286.03900000000004 C 462.463 286.044 507.846 286.037 507.846 286.037" stroke-linecap="round" />
</g>
		<g transform="matrix(1.05 0 0 1.05 -179.9 -78)"  >
<path style="stroke: none; stroke-width: 1; stroke-dasharray: none; stroke-linecap: butt; stroke-dashoffset: 0; stroke-linejoin: miter; stroke-miterlimit: 4; fill: rgb(0,0,0); fill-rule: nonzero; opacity: 1;" vector-effect="non-scaling-stroke"  transform=" translate(-500.54, -69.34)" d="M 468.649 0.503 C 460.483 0.503 449.021 4.719 442.439 9.615 C 435.85900000000004 14.513 426.31800000000004 25.671 426.31800000000004 41.045 C 426.32700000000006 56.419000000000004 435.63200000000006 68.375 435.63200000000006 68.375 C 440.38800000000003 74.298 452.41100000000006 86.743 452.41100000000006 86.743 C 452.66700000000003 87.048 452.84100000000007 87.425 452.84100000000007 87.84599999999999 C 452.84100000000007 88.773 452.09900000000005 89.51899999999999 451.17600000000004 89.51899999999999 C 451.03700000000003 89.52199999999999 341.54900000000004 89.52799999999999 341.54900000000004 89.52799999999999 L 341.54900000000004 138.183 L 473.29600000000005 138.183 C 491.24300000000005 138.183 501.22600000000006 128.387 503.951 125.648 C 506.66700000000003 122.92399999999999 515.745 112.67 515.745 95.71 C 515.745 78.743 508.039 69.969 504.745 65.98899999999999 C 501.793 62.42399999999999 490.076 50.04399999999999 487.634 47.486999999999995 C 487.35 47.239999999999995 487.163 46.87499999999999 487.163 46.471 C 487.163 45.873 487.495 45.312 488.046 45.141999999999996 L 551.498 45.141999999999996 L 551.498 138.183 L 600.298 138.183 L 600.298 45.372 L 659.5360000000001 45.372 L 659.5360000000001 0.503 L 468.649 0.503 z" stroke-linecap="round" />
</g>
		<g transform="matrix(1.05 0 0 1.05 52.04 -78)"  >
<path style="stroke: none; stroke-width: 1; stroke-dasharray: none; stroke-linecap: butt; stroke-dashoffset: 0; stroke-linejoin: miter; stroke-miterlimit: 4; fill: rgb(0,0,0); fill-rule: nonzero; opacity: 1;" vector-effect="non-scaling-stroke"  transform=" translate(-720.03, -69.34)" d="M 757.889 1.713 C 757.683 1.029 757.086 0.536 756.351 0.5030000000000001 L 682.641 0.5030000000000001 C 681.9069999999999 0.5320000000000001 681.308 1.0250000000000001 681.101 1.699 C 681.101 1.699 640.396 136.705 640.396 136.955 C 640.396 137.63000000000002 640.934 138.179 641.615 138.179 L 690.318 138.183 C 690.728 138.052 691.014 137.664 691.1039999999999 137.25 L 696.7719999999999 119.03399999999999 C 696.959 118.60099999999998 697.3789999999999 118.28699999999999 697.8779999999999 118.26199999999999 L 742.8159999999999 118.26699999999998 C 743.3299999999999 118.30799999999998 743.742 118.61499999999998 743.9239999999999 119.05599999999998 L 749.7309999999999 137.24999999999997 C 749.8389999999998 137.66399999999996 750.1239999999999 138.05199999999996 750.5039999999999 138.18599999999998 C 750.5039999999999 138.18599999999998 798.4039999999999 138.17899999999997 798.4549999999999 138.17899999999997 C 799.1229999999999 138.18299999999996 799.661 137.65699999999998 799.661 136.98199999999997 C 799.661 136.765 757.889 1.713 757.889 1.713 M 730.863 80.812 L 710.7810000000001 80.812 C 710.047 80.801 709.5740000000001 80.003 709.5740000000001 79.261 C 709.5740000000001 78.96 720.253 44.42399999999999 720.253 44.42399999999999 C 720.6260000000001 43.126999999999995 720.7460000000001 43.08699999999999 720.8230000000001 43.08699999999999 C 720.9120000000001 43.08699999999999 721.0180000000001 43.12699999999999 721.3900000000001 44.42399999999999 C 721.3900000000001 44.42399999999999 732.0780000000001 78.96 732.0780000000001 79.261 C 732.078 80.003 731.581 80.801 730.863 80.812" stroke-linecap="round" />
</g>
		<g transform="matrix(1.05 0 0 1.05 246.41 -78)"  >
<path style="stroke: none; stroke-width: 1; stroke-dasharray: none; stroke-linecap: butt; stroke-dashoffset: 0; stroke-linejoin: miter; stroke-miterlimit: 4; fill: rgb(0,0,0); fill-rule: nonzero; opacity: 1;" vector-effect="non-scaling-stroke"  transform=" translate(-904.35, -69.34)" d="M 933.715 89.438 C 925.5550000000001 89.401 924.979 86.144 924.979 85.681 C 924.979 84.843 926.0110000000001 84.318 926.0110000000001 84.318 C 929.0670000000001 82.835 935.311 77.93599999999999 935.311 77.93599999999999 C 948.587 67.56899999999999 950.1790000000001 53.349999999999994 950.1790000000001 45.714999999999996 C 950.1790000000001 38.090999999999994 949.0430000000001 24.563999999999997 935.4230000000001 12.717999999999996 C 921.8110000000001 0.8769999999999971 904.5630000000001 0.5029999999999966 904.5630000000001 0.5029999999999966 L 808.6920000000001 0.5029999999999966 C 808.6920000000001 0.5029999999999966 808.6920000000001 137.385 808.7010000000001 137.397 C 808.6920000000001 137.838 809.0970000000001 138.19199999999998 809.5380000000001 138.183 L 862.9100000000001 138.183 L 862.9100000000001 99.801 C 862.9100000000001 99.123 863.931 99.801 863.931 99.801 L 891.74 127.807 C 901.6030000000001 137.838 917.948 138.183 917.948 138.183 L 1000.001 138.183 L 1000.001 89.438 L 933.715 89.438 z M 894.218 56.881 L 864.303 56.878 C 864.303 56.878 863.503 56.666 863.503 55.748 L 863.474 40.586 C 863.474 39.684 864.2750000000001 39.452999999999996 864.2750000000001 39.452999999999996 L 891.739 39.452999999999996 C 894.9150000000001 39.455999999999996 901.383 41.044999999999995 901.383 48.45099999999999 C 901.374 55.85 894.218 56.881 894.218 56.881" stroke-linecap="round" />
</g>
</g>
</g>
</svg>